Coordinates
version=1
nRows=14
nColumns=40
inDegrees=yes

Units are S.I. units (second, meters, Newtons, ...)
Angles are in degrees.

endheader
time	pelvis_tilt	pelvis_list	pelvis_rotation	pelvis_tx	pelvis_ty	pelvis_tz	hip_flexion_r	hip_adduction_r	hip_rotation_r	knee_angle_r	knee_angle_r_beta	ankle_angle_r	subtalar_angle_r	mtp_angle_r	hip_flexion_l	hip_adduction_l	hip_rotation_l	knee_angle_l	knee_angle_l_beta	ankle_angle_l	subtalar_angle_l	mtp_angle_l	lumbar_extension	lumbar_bending	lumbar_rotation	arm_flex_r	arm_add_r	arm_rot_r	elbow_flex_r	pro_sup_r	wrist_flex_r	wrist_dev_r	arm_flex_l	arm_add_l	arm_rot_l	elbow_flex_l	pro_sup_l	wrist_flex_l	wrist_dev_l
     15.46000000	     -3.95537671	     -2.69398478	      1.89324640	      1.09077144	      0.93074026	      0.41751790	     29.92350487	     -7.10248920	     -7.61164511	     72.22984734	     72.22984734	     -2.04923239	    -16.79300036	      0.82245352	     16.49148011	     -3.47810135	    -10.06653216	     21.15272128	     21.15272128	     10.77651154	    -12.69046068	     -4.17658427	     -8.75321388	      3.82327607	      1.15297792	      8.42627138	    -14.40701645	     -3.74540443	     82.80552348	     44.64226053	      0.00000000	      0.00000000	      9.02341897	    -11.22702249	      4.55376147	     33.77060065	     44.48974251	      0.00000000	      0.00000000
     15.47107143	     -3.78843108	     -2.72273213	      1.67230698	      1.09013249	      0.93137983	      0.41697058	     31.11580589	     -7.06957423	     -7.53962146	     71.44027792	     71.44027792	     -1.71884146	    -16.58459786	      0.49205038	     15.40523836	     -3.48675607	    -10.25839983	     20.67844554	     20.67844554	     11.06268708	    -12.57157677	     -4.59418425	     -8.92879698	      3.95373977	      1.53054859	      6.28856110	    -14.60147976	     -3.80074563	     78.63678723	     44.78555283	      0.00000000	      0.00000000	     11.29522234	    -11.64967560	      4.62043687	     34.76021405	     44.54733212	      0.00000000	      0.00000000
     15.48214286	     -3.63291416	     -2.83837535	      1.47228621	      1.08958655	      0.93205547	      0.41650918	     32.15272260	     -6.92905886	     -7.57480540	     70.38744058	     70.38744058	     -1.48893691	    -16.47161563	      0.37144424	     14.30680743	     -3.62964945	    -10.66357553	     20.13398511	     20.13398511	     11.25745627	    -12.11624298	     -5.37617918	     -9.03061220	      4.13820225	      1.27788085	      5.31592064	    -14.01939635	     -4.19758738	     72.45430817	     45.02004769	      0.00000000	      0.00000000	     13.07546505	    -12.41041197	      5.13664947	     35.95830015	     44.57755425	      0.00000000	      0.00000000
     15.49321429	     -3.40881238	     -2.90488805	      1.22256861	      1.08913011	      0.93272715	      0.41606892	     33.00999500	     -6.79008491	     -7.54377762	     69.12812697	     69.12812697	     -1.23237039	    -16.34095216	      0.57174205	     13.10149346	     -3.69043863	    -11.02663957	     19.55099516	     19.55099516	     11.60779380	    -11.70411749	     -5.66984726	     -9.29736497	      4.31296064	      1.75094458	      3.45953130	    -14.27524070	     -4.12276302	     68.30417479	     45.15510042	      0.00000000	      0.00000000	     15.19744268	    -12.78580263	      5.21109218	     37.44032823	     44.62891016	      0.00000000	      0.00000000
     15.50428571	     -3.26084922	     -2.98388209	      1.03110529	      1.08874694	      0.93324391	      0.41567476	     33.79099250	     -6.67715399	     -7.65462081	     67.59098411	     67.59098411	     -0.90037263	    -16.23370392	      1.21909236	     11.99379346	     -3.77812018	    -11.46759367	     18.97144193	     18.97144193	     11.83981210	    -11.15361016	     -6.33923470	     -9.36468242	      4.46189000	      1.25966657	      3.43790481	    -13.48583887	     -4.65662832	     60.89944737	     45.43294718	      0.00000000	      0.00000000	     16.62774921	    -13.76773103	      5.84396163	     38.91379168	     44.64616774	      0.00000000	      0.00000000
     15.51535714	     -3.08826036	     -3.01275148	      0.80118640	      1.08848626	      0.93366037	      0.41529777	     34.41184644	     -6.59378398	     -7.74270388	     65.76018839	     65.76018839	     -0.58931882	    -16.14220327	      1.86419613	     10.80017851	     -3.76448286	    -11.81938312	     18.28718196	     18.28718196	     12.09299258	    -10.76299467	     -6.76591042	     -9.53664470	      4.57098850	      1.18314012	      2.72829687	    -13.25623065	     -4.81653088	     55.17642863	     45.63317506	      0.00000000	      0.00000000	     18.14836384	    -14.48050306	      6.15847089	     40.80410379	     44.70962517	      0.00000000	      0.00000000
     15.52642857	     -2.89140179	     -3.00422867	      0.57005438	      1.08834350	      0.93403292	      0.41495768	     34.82850903	     -6.55515489	     -7.90224251	     63.55135657	     63.55135657	     -0.36523322	    -16.14229930	      2.40229142	      9.54288763	     -3.69391674	    -12.19118840	     17.53781695	     17.53781695	     12.27265329	    -10.41118591	     -7.18161752	     -9.75532028	      4.67451495	      1.09810103	      2.11263494	    -13.00251903	     -5.13062903	     49.58355910	     45.83128867	      0.00000000	      0.00000000	     19.58240428	    -15.20075491	      6.29811406	     42.74871002	     44.80604271	      0.00000000	      0.00000000
     15.53750000	     -2.71004936	     -3.00011378	      0.32155497	      1.08837203	      0.93429271	      0.41463390	     35.06718583	     -6.48397660	     -8.09917090	     60.93028189	     60.93028189	     -0.23295761	    -16.17717116	      2.76102640	      8.23938898	     -3.58834268	    -12.48771555	     16.69756671	     16.69756671	     12.57641693	    -10.04825056	     -7.26448991	    -10.01611703	      4.83766170	      1.59669609	      0.21154011	    -13.28942397	     -5.07693065	     46.97205863	     45.91036742	      0.00000000	      0.00000000	     21.38381268	    -15.35900400	      6.08435106	     44.28688327	     44.87663048	      0.00000000	      0.00000000
     15.54857143	     -2.61719580	     -2.89512374	      0.07677868	      1.08848701	      0.93422540	      0.41441067	     35.24197834	     -6.52708831	     -8.35641417	     57.95976940	     57.95976940	     -0.19940367	    -16.16000820	      2.64762407	      7.01641733	     -3.37995555	    -12.88976748	     15.81254035	     15.81254035	     12.58654663	     -9.71243158	     -8.09315920	    -10.04684663	      4.82074740	      1.18886503	      0.56560607	    -12.71562435	     -6.02453925	     39.65287908	     46.21243904	      0.00000000	      0.00000000	     22.29326223	    -16.38704174	      6.12803387	     46.79148848	     44.98615239	      0.00000000	      0.00000000
     15.55964286	     -2.51180401	     -2.78597995	     -0.19165224	      1.08873272	      0.93406993	      0.41421248	     35.22314012	     -6.51510363	     -8.63120865	     54.62239252	     54.62239252	     -0.04259057	    -16.00813485	      2.86364570	      5.74583554	     -3.13261839	    -13.23038643	     14.89584447	     14.89584447	     12.82452202	     -9.35772193	     -8.19554920	    -10.20788871	      4.86103464	      1.68797734	     -1.34563851	    -12.96461169	     -6.11896874	     37.38145199	     46.28723847	      0.00000000	      0.00000000	     23.89829275	    -16.50995137	      5.77903806	     48.57954804	     45.07198923	      0.00000000	      0.00000000
     15.57071429	     -2.50500846	     -2.65148054	     -0.41576137	      1.08910852	      0.93359047	      0.41407270	     35.07252063	     -6.53815051	     -9.05329001	     50.84698944	     50.84698944	     -0.31319593	    -15.80687386	      1.67486091	      4.54279073	     -2.84369937	    -13.52295131	     13.87278480	     13.87278480	     12.69028344	     -9.13133119	     -9.17673782	    -10.17957398	      4.84257014	      1.18749460	     -1.27544647	    -12.56505849	     -7.34881380	     31.40084302	     46.57645901	      0.00000000	      0.00000000	     24.32227906	    -17.50015379	      5.27996419	     51.93565487	     45.24968977	      0.00000000	      0.00000000
     15.58178571	     -2.48050413	     -2.55522803	     -0.66140600	      1.08961304	      0.93299404	      0.41406068	     34.74767017	     -6.42713034	     -9.49621938	     46.83140152	     46.83140152	     -0.09402033	    -15.20404402	      1.88999167	      3.35652266	     -2.60283420	    -13.81415841	     12.97916215	     12.97916215	     12.95708716	     -8.75539353	     -9.27063160	    -10.22679264	      4.90853966	      1.63046187	     -3.26853922	    -12.81225214	     -7.50708009	     29.75906792	     46.63507230	      0.00000000	      0.00000000	     25.75373539	    -17.56221294	      4.84624435	     53.65185077	     45.33718718	      0.00000000	      0.00000000
     15.59285714	     -2.46080484	     -2.36070973	     -0.91467844	      1.09033498	      0.93214687	      0.41417631	     34.27890441	     -6.36696730	     -9.95779912	     42.61838806	     42.61838806	      0.07439816	    -14.26864175	      1.76199551	      2.11686858	     -2.24893480	    -14.19313988	     11.99134451	     11.99134451	     13.12583273	     -8.27238525	     -9.59016984	    -10.23645954	      4.82223322	      2.03817733	     -5.02927687	    -12.88743592	     -7.81190402	     27.60199756	     46.73023311	      0.00000000	      0.00000000	     26.95469229	    -17.73143108	      4.35018978	     56.03928196	     45.44225636	      0.00000000	      0.00000000
     15.60392857	     -2.53245122	     -2.22843420	     -1.09953867	      1.09121531	      0.93094613	      0.41438514	     33.63343426	     -6.18443081	    -10.54548424	     38.03758183	     38.03758183	     -0.27476629	    -13.25963779	      0.09253936	      1.00079302	     -1.96140891	    -14.36901458	     11.01571440	     11.01571440	     12.97522219	     -8.12658078	    -10.61767990	    -10.13612819	      4.79968211	      1.29468881	     -5.26364269	    -12.69988052	     -9.57172164	     23.60197621	     47.04074336	      0.00000000	      0.00000000	     26.61277759	    -18.77403027	      3.00490451	     60.40253640	     45.72541019	      0.00000000	      0.00000000
